<svg width="64" height="64" viewBox="0 0 80 80" fill="none" xmlns="http://www.w3.org/2000/svg">
  <!-- W+S neural network -->
  <g>
    <!-- W - Left stroke -->
    <circle cx="10" cy="18" r="2.5" fill="#000000" />
    <circle cx="6" cy="32" r="1.8" fill="#000000" />
    <circle cx="12" cy="46" r="2" fill="#000000" />
    <line x1="10" y1="18" x2="6" y2="32" stroke="#000000" stroke-width="1.2" opacity="0.2"/>
    <line x1="6" y1="32" x2="12" y2="46" stroke="#000000" stroke-width="1.2" opacity="0.2"/>
    <line x1="10" y1="18" x2="20" y2="56" stroke="#000000" stroke-width="4" stroke-linecap="round"/>
    <line x1="12" y1="46" x2="20" y2="56" stroke="#000000" stroke-width="2" opacity="0.25"/>
    
    <!-- W - Valley node -->
    <circle cx="20" cy="56" r="3.5" fill="#000000" />
    <circle cx="20" cy="56" r="6" stroke="#000000" stroke-width="0.6" opacity="0.15" />
    
    <!-- W - Center -->
    <line x1="20" y1="56" x2="28" y2="28" stroke="#000000" stroke-width="4" stroke-linecap="round"/>
    <circle cx="28" cy="28" r="3" fill="#000000" />
    <circle cx="28" cy="28" r="5.5" stroke="#000000" stroke-width="0.6" opacity="0.15" />
    
    <line x1="28" y1="28" x2="36" y2="56" stroke="#000000" stroke-width="4" stroke-linecap="round"/>
    <circle cx="36" cy="56" r="3" fill="#000000" />
    
    <!-- Transition to S -->
    <line x1="36" y1="56" x2="44" y2="26" stroke="#000000" stroke-width="4" stroke-linecap="round"/>
    <circle cx="44" cy="26" r="3" fill="#000000" />
    <circle cx="44" cy="26" r="5.5" stroke="#000000" stroke-width="0.6" opacity="0.15" />
    
    <!-- S - Top curve -->
    <path d="M44 26 Q44 18, 52 16 Q60 14, 64 18 Q68 22, 68 28" stroke="#000000" stroke-width="3.8" stroke-linecap="round" fill="none"/>
    <circle cx="48" cy="20" r="1.8" fill="#000000" />
    <circle cx="52" cy="16" r="2.2" fill="#000000" />
    <circle cx="60" cy="14" r="1.8" fill="#000000" />
    <circle cx="64" cy="18" r="2" fill="#000000" />
    <circle cx="68" cy="28" r="2.8" fill="#000000" />
    
    <!-- S - Middle curve -->
    <path d="M68 28 Q68 36, 60 40 Q52 44, 48 48" stroke="#000000" stroke-width="3.8" stroke-linecap="round" fill="none"/>
    <circle cx="64" cy="32" r="1.6" fill="#000000" />
    <circle cx="60" cy="40" r="2.5" fill="#000000" />
    <circle cx="56" cy="44" r="1.8" fill="#000000" />
    <circle cx="48" cy="48" r="2.8" fill="#000000" />
    
    <!-- S - Bottom curve -->
    <path d="M48 48 Q44 52, 48 56 Q52 60, 60 58 Q66 56, 68 52" stroke="#000000" stroke-width="3.8" stroke-linecap="round" fill="none"/>
    <circle cx="44" cy="52" r="1.6" fill="#000000" />
    <circle cx="48" cy="56" r="2" fill="#000000" />
    <circle cx="56" cy="58" r="1.8" fill="#000000" />
    <circle cx="60" cy="58" r="2" fill="#000000" />
    <circle cx="68" cy="52" r="2.2" fill="#000000" />
    
    <!-- Tensor connections -->
    <line x1="44" y1="26" x2="48" y2="20" stroke="#000000" stroke-width="1" opacity="0.2"/>
    <line x1="48" y1="20" x2="52" y2="16" stroke="#000000" stroke-width="1" opacity="0.2"/>
    <line x1="52" y1="16" x2="60" y2="14" stroke="#000000" stroke-width="1" opacity="0.2"/>
    <line x1="60" y1="14" x2="64" y2="18" stroke="#000000" stroke-width="1" opacity="0.2"/>
    <line x1="64" y1="18" x2="68" y2="28" stroke="#000000" stroke-width="1" opacity="0.2"/>
    <line x1="68" y1="28" x2="64" y2="32" stroke="#000000" stroke-width="1" opacity="0.2"/>
    <line x1="64" y1="32" x2="60" y2="40" stroke="#000000" stroke-width="1" opacity="0.2"/>
    <line x1="60" y1="40" x2="56" y2="44" stroke="#000000" stroke-width="1" opacity="0.2"/>
    <line x1="56" y1="44" x2="48" y2="48" stroke="#000000" stroke-width="1" opacity="0.2"/>
    <line x1="48" y1="48" x2="44" y2="52" stroke="#000000" stroke-width="1" opacity="0.2"/>
    <line x1="44" y1="52" x2="48" y2="56" stroke="#000000" stroke-width="1" opacity="0.2"/>
    <line x1="48" y1="56" x2="56" y2="58" stroke="#000000" stroke-width="1" opacity="0.2"/>
    <line x1="56" y1="58" x2="60" y2="58" stroke="#000000" stroke-width="1" opacity="0.2"/>
    <line x1="60" y1="58" x2="68" y2="52" stroke="#000000" stroke-width="1" opacity="0.2"/>
    
    <!-- Cross-network tensors -->
    <line x1="28" y1="28" x2="44" y2="26" stroke="#000000" stroke-width="1.5" opacity="0.15"/>
    <line x1="20" y1="56" x2="48" y2="48" stroke="#000000" stroke-width="0.8" opacity="0.08"/>
    <line x1="10" y1="18" x2="52" y2="16" stroke="#000000" stroke-width="0.6" opacity="0.06"/>
    <line x1="36" y1="56" x2="48" y2="56" stroke="#000000" stroke-width="0.8" opacity="0.08"/>
    <line x1="28" y1="28" x2="68" y2="28" stroke="#000000" stroke-width="0.8" opacity="0.08"/>
    <line x1="44" y1="26" x2="60" y2="40" stroke="#000000" stroke-width="0.6" opacity="0.06"/>
  </g>

  <!-- Glitch bars -->
  <rect x="8" y="12" width="14" height="1.5" fill="#000000" opacity="0.18"/>
  <rect x="50" y="10" width="12" height="1.2" fill="#000000" opacity="0.15"/>
  <rect x="44" y="62" width="16" height="1.5" fill="#000000" opacity="0.18"/>
</svg>